<svg height="512pt" viewBox="0 0 512 512" width="512pt" xmlns="http://www.w3.org/2000/svg"><path d="m512 181v-30h-151v-151h-30v151h-150v-151h-30v151h-151v30h151v150h-151v30h151v151h30v-151h150v151h30v-151h151v-30h-151v-150zm-181 150h-150v-150h150zm0 0" fill="#6e6e6e"/><path d="m277.300781 436 26.699219 27-21 21-27-26.699219-27 26.699219-21-21 26.699219-27-26.699219-27 21-21 27 26.699219 27-26.699219 21 21zm0 0" fill="#ffd400"/><path d="m462.894531 207.894531-26.894531 26.894531-26.894531-26.894531-21.210938 21.210938 26.894531 26.894531-26.894531 26.894531 21.210938 21.210938 26.894531-26.894531 26.894531 26.894531 21.210938-21.210938-26.894531-26.894531 26.894531-26.894531zm0 0" fill="#fdbf00"/><path d="m102.894531 387.894531-26.894531 26.894531-26.894531-26.894531-21.210938 21.210938 26.894531 26.894531-26.894531 26.894531 21.210938 21.210938 26.894531-26.894531 26.894531 26.894531 21.210938-21.210938-26.894531-26.894531 26.894531-26.894531zm0 0" fill="#ffd400"/><path d="m49.105469 124.105469 26.894531-26.894531 26.894531 26.894531 21.210938-21.210938-26.894531-26.894531 26.894531-26.894531-21.210938-21.210938-26.894531 26.894531-26.894531-26.894531-21.210938 21.210938 26.894531 26.894531-26.894531 26.894531zm0 0" fill="#ffd400"/><path d="m409.105469 124.105469 26.894531-26.894531 26.894531 26.894531 21.210938-21.210938-26.894531-26.894531 26.894531-26.894531-21.210938-21.210938-26.894531 26.894531-26.894531-26.894531-21.210938 21.210938 26.894531 26.894531-26.894531 26.894531zm0 0" fill="#fdbf00"/><path d="m304 409-26.699219 27 26.699219 27-21 21-27-26.699219v-42.601562l27-26.699219zm0 0" fill="#fdbf00"/><path d="m361 181v150h151v30h-151v151h-30v-151h-75v-30h75v-150h-75v-30h75v-151h30v151h151v30zm0 0" fill="#5a5a5a"/><g fill="#ff6c6c"><path d="m256 31c-24.902344 0-45 20.097656-45 45 0 24.898438 20.097656 45 45 45s45-20.101562 45-45c0-24.902344-20.097656-45-45-45zm0 60c-8.402344 0-15-6.601562-15-15 0-8.402344 6.597656-15 15-15s15 6.597656 15 15c0 8.398438-6.597656 15-15 15zm0 0"/><path d="m256 211c-24.902344 0-45 20.097656-45 45 0 24.898438 20.097656 45 45 45s45-20.101562 45-45c0-24.902344-20.097656-45-45-45zm0 60c-8.402344 0-15-6.601562-15-15 0-8.402344 6.597656-15 15-15s15 6.597656 15 15c0 8.398438-6.597656 15-15 15zm0 0"/><path d="m76 211c-24.902344 0-45 20.097656-45 45 0 24.898438 20.097656 45 45 45s45-20.101562 45-45c0-24.902344-20.097656-45-45-45zm0 60c-8.402344 0-15-6.601562-15-15 0-8.402344 6.597656-15 15-15s15 6.597656 15 15c0 8.398438-6.597656 15-15 15zm0 0"/></g><path d="m436 391c-24.902344 0-45 20.097656-45 45 0 24.898438 20.097656 45 45 45s45-20.101562 45-45c0-24.902344-20.097656-45-45-45zm0 60c-8.402344 0-15-6.601562-15-15 0-8.402344 6.597656-15 15-15s15 6.597656 15 15c0 8.398438-6.597656 15-15 15zm0 0" fill="#ff4949"/><path d="m301 256c0 24.898438-20.097656 45-45 45v-30c8.402344 0 15-6.601562 15-15 0-8.402344-6.597656-15-15-15v-30c24.902344 0 45 20.097656 45 45zm0 0" fill="#ff4949"/><path d="m301 76c0 24.898438-20.097656 45-45 45v-30c8.402344 0 15-6.601562 15-15 0-8.402344-6.597656-15-15-15v-30c24.902344 0 45 20.097656 45 45zm0 0" fill="#ff4949"/></svg>